<?xml version="1.0" encoding="UTF-8"?>
<svg
    width="266px" height="789px" viewBox="0 0 266 789" version="1.1" xmlns="http://www.w3.org/2000/svg" xmlns:xlink="http://www.w3.org/1999/xlink">
    <!-- Generator: Sketch 64 (93537) - https://sketch.com -->
    <title>Group 5</title>
    <desc>Created with Sketch.</desc>
    <g id="Page-1" stroke="none" stroke-width="1" fill="none" fill-rule="evenodd">
        <g id="Landing-Page-" transform="translate(-578.000000, -1265.000000)">
            <g id="Group-5" transform="translate(579.000000, 1267.000000)">
                <circle id="Oval" stroke="#777777" stroke-width="2" fill="#FFFFFF" cx="140.5" cy="89.5" r="71.5"></circle>
                <g id="feedback" transform="translate(111.000000, 53.000000)" fill="#767676" fill-rule="nonzero">
                    <path d="M42.114,72 L40.5,72 C38.019,72 36,69.981 36,67.5 L36,50.544 C36,48.063 38.019,46.044 40.5,46.044 L42.114,46.044 C44.595,46.044 46.614,48.063 46.614,50.544 L46.614,67.5 C46.614,69.981 44.595,72 42.114,72 Z M40.5,49.044 C39.675,49.044 39,49.719 39,50.544 L39,67.5 C39,68.325 39.675,69 40.5,69 L42.114,69 C42.939,69 43.614,68.325 43.614,67.5 L43.614,50.544 C43.614,49.719 42.939,49.044 42.114,49.044 L40.5,49.044 Z" id="Shape"></path>
                    <path d="M63.084,72 L60.456,72 C49.305,72 44.394,68.256 44.187,68.094 C43.536,67.584 43.422,66.642 43.932,65.988 C44.442,65.334 45.381,65.217 46.038,65.733 C46.071,65.76 50.454,69 60.456,69 L63.084,69 C65.163,69 66.924,67.512 67.266,65.457 L68.943,55.413 C69.147,54.18 68.802,52.929 67.998,51.975 C67.188,51.021 66.012,50.475 64.764,50.475 L56.157,50.475 C55.602,50.475 55.095,50.169 54.837,49.683 C54.576,49.194 54.603,48.606 54.909,48.141 C54.915,48.132 56.091,46.272 56.091,43.233 C56.085,40.152 54.807,39 54,39 C53.76,39 53.688,39.033 53.685,39.033 C53.679,39.051 53.349,39.48 53.349,41.805 C53.349,47.658 46.131,51.576 45.822,51.741 C45.087,52.131 44.184,51.855 43.794,51.123 C43.404,50.394 43.68,49.485 44.409,49.095 C46.059,48.207 50.346,45.168 50.346,41.805 C50.346,39.777 50.346,36 54,36 C56.448,36 59.085,38.265 59.085,43.239 C59.085,44.955 58.785,46.392 58.44,47.478 L64.758,47.478 C66.891,47.478 68.904,48.411 70.281,50.04 C71.658,51.666 72.249,53.805 71.898,55.908 L70.221,65.952 C69.642,69.456 66.639,72 63.084,72 Z" id="Path"></path>
                    <path d="M28.5,63 L7.5,63 C3.363,63 0,59.637 0,55.5 L0,16.5 C0,12.363 3.363,9 7.5,9 L13.5,9 C14.328,9 15,9.672 15,10.5 C15,11.328 14.328,12 13.5,12 L7.5,12 C5.019,12 3,14.019 3,16.5 L3,55.5 C3,57.981 5.019,60 7.5,60 L28.5,60 C29.328,60 30,60.672 30,61.5 C30,62.328 29.328,63 28.5,63 Z" id="Path"></path>
                    <path d="M34.5,18 L16.5,18 C14.019,18 12,15.981 12,13.5 L12,7.5 C12,6.672 12.672,6 13.5,6 L18.15,6 C18.846,2.58 21.879,0 25.5,0 C29.121,0 32.154,2.58 32.85,6 L37.5,6 C38.328,6 39,6.672 39,7.5 L39,13.5 C39,15.981 36.981,18 34.5,18 Z M15,9 L15,13.5 C15,14.325 15.675,15 16.5,15 L34.5,15 C35.325,15 36,14.325 36,13.5 L36,9 L31.5,9 C30.672,9 30,8.328 30,7.5 C30,5.019 27.981,3 25.5,3 C23.019,3 21,5.019 21,7.5 C21,8.328 20.328,9 19.5,9 L15,9 Z" id="Shape"></path>
                    <path d="M40.5,27 L10.5,27 C9.672,27 9,26.328 9,25.5 C9,24.672 9.672,24 10.5,24 L40.5,24 C41.328,24 42,24.672 42,25.5 C42,26.328 41.328,27 40.5,27 Z" id="Path"></path>
                    <path d="M40.5,36 L10.5,36 C9.672,36 9,35.328 9,34.5 C9,33.672 9.672,33 10.5,33 L40.5,33 C41.328,33 42,33.672 42,34.5 C42,35.328 41.328,36 40.5,36 Z" id="Path"></path>
                    <path d="M28.5,45 L10.5,45 C9.672,45 9,44.328 9,43.5 C9,42.672 9.672,42 10.5,42 L28.5,42 C29.328,42 30,42.672 30,43.5 C30,44.328 29.328,45 28.5,45 Z" id="Path"></path>
                    <path d="M49.5,30 C48.672,30 48,29.328 48,28.5 L48,16.5 C48,14.019 45.981,12 43.5,12 L37.5,12 C36.672,12 36,11.328 36,10.5 C36,9.672 36.672,9 37.5,9 L43.5,9 C47.637,9 51,12.363 51,16.5 L51,28.5 C51,29.328 50.328,30 49.5,30 Z" id="Path"></path>
                </g>
                <path d="M140.393266,249 L140.393266,178.974715 C189.881698,178.974715 230,138.909861 230,89.4873576 C230,40.0648547 189.881698,0 140.393266,0 C90.9048326,0 50.786531,40.0648547 50.786531,89.4873576 L7,89.4873576" id="Oval-Copy-3" stroke="#C13147" stroke-width="3" stroke-linecap="round" stroke-linejoin="round"></path>
                <path d="M140.041245,553 L140,464.936755 C189.705627,464.936755 230,424.902305 230,375.517309 C230,326.132313 189.705627,286.097864 140,286.097864 L140.056394,247" id="Oval-Copy-4" stroke="#C32F44" stroke-width="3" stroke-linecap="round" stroke-linejoin="round"></path>
                <path d="M143.474809,782 L143.474809,731.771291 C192.918207,731.771291 233,691.751974 233,642.385645 C233,593.019317 192.918207,553 143.474809,553 C94.0314116,553 53.9496184,593.019317 53.9496184,642.385645 L-3,642.719203" id="Oval-Copy-5" stroke="#C32F44" stroke-width="3" stroke-linecap="round" stroke-linejoin="round" transform="translate(115.000000, 667.500000) rotate(-270.000000) translate(-115.000000, -667.500000) "></path>
                <circle id="Oval-Copy" stroke="#777777" stroke-width="2" fill="#FFFFFF" cx="140.5" cy="375.5" r="71.5"></circle>
                <circle id="Oval-Copy-2" stroke="#777777" stroke-width="2" fill="#FFFFFF" cx="140.5" cy="695.5" r="71.5"></circle>
                <g id="job-search" transform="translate(107.000000, 660.000000)" fill-rule="nonzero">
                    <path d="M68.516129,37.1612903 L60.3870968,37.1612903 L60.3870968,31.3548387 C60.3870968,29.4340645 58.824,27.8709677 56.9032258,27.8709677 L55.7419355,27.8709677 L55.7419355,0 L15.7772903,0 L0,15.7772903 L0,72 L26.7096774,72 L31.3548387,72 L68.516129,72 C70.4369032,72 72,70.4369032 72,68.516129 L72,40.6451613 C72,38.7243871 70.4369032,37.1612903 68.516129,37.1612903 Z M60.3870968,39.483871 L68.516129,39.483871 C68.8830968,39.483871 69.1966452,39.6650323 69.4091613,39.9309677 L63.0847742,55.7419355 L52.2580645,55.7419355 L52.2580645,53.4193548 L42.9677419,53.4193548 L42.9677419,55.7419355 L32.1410323,55.7419355 L25.8166452,39.9309677 C26.0291613,39.6650323 26.3427097,39.483871 26.7096774,39.483871 L34.8387097,39.483871 L39.483871,39.483871 L55.7419355,39.483871 L60.3870968,39.483871 Z M49.9354839,55.7419355 L49.9354839,58.0645161 L45.2903226,58.0645161 L45.2903226,55.7419355 L49.9354839,55.7419355 Z M41.8064516,37.1612903 L41.8064516,34.8387097 L53.4193548,34.8387097 L53.4193548,37.1612903 L41.8064516,37.1612903 Z M56.9032258,30.1935484 C57.5442581,30.1935484 58.0645161,30.7138065 58.0645161,31.3548387 L58.0645161,37.1612903 L55.7419355,37.1612903 L55.7419355,32.516129 L39.483871,32.516129 L39.483871,37.1612903 L37.1612903,37.1612903 L37.1612903,31.3548387 C37.1612903,30.7138065 37.6815484,30.1935484 38.3225806,30.1935484 L56.9032258,30.1935484 Z M15.0967742,3.96464516 L15.0967742,15.0967742 L3.96464516,15.0967742 L15.0967742,3.96464516 Z M23.4394839,69.6774194 L2.32258065,69.6774194 L2.32258065,17.4193548 L4.64516129,17.4193548 L4.64516129,25.5483871 L48.7741935,25.5483871 L48.7741935,16.0443871 C50.1224516,15.5636129 51.0967742,14.2861935 51.0967742,12.7741935 C51.0967742,11.8788387 50.7472258,11.0694194 50.1909677,10.4516129 C50.7472258,9.83380645 51.0967742,9.0243871 51.0967742,8.12903226 C51.0967742,6.20825806 49.5336774,4.64516129 47.6129032,4.64516129 L41.8064516,4.64516129 L41.8064516,9.29032258 L41.8064516,11.6129032 L41.8064516,16.2580645 L46.4516129,16.2580645 L46.4516129,23.2258065 L6.96774194,23.2258065 L6.96774194,17.4193548 L17.4193548,17.4193548 L17.4193548,2.32258065 L53.4193548,2.32258065 L53.4193548,27.8709677 L38.3225806,27.8709677 C36.4018065,27.8709677 34.8387097,29.4340645 34.8387097,31.3548387 L34.8387097,37.1612903 L26.7096774,37.1612903 C24.7889032,37.1612903 23.2258065,38.7243871 23.2258065,40.6451613 L23.2258065,68.516129 C23.2258065,68.9249032 23.3094194,69.3127742 23.4394839,69.6774194 Z M47.6129032,11.6129032 C48.2539355,11.6129032 48.7741935,12.1331613 48.7741935,12.7741935 C48.7741935,13.4152258 48.2539355,13.9354839 47.6129032,13.9354839 L44.1290323,13.9354839 L44.1290323,11.6129032 L47.6129032,11.6129032 Z M44.1290323,9.29032258 L44.1290323,6.96774194 L47.6129032,6.96774194 C48.2539355,6.96774194 48.7741935,7.488 48.7741935,8.12903226 C48.7741935,8.77006452 48.2539355,9.29032258 47.6129032,9.29032258 L44.1290323,9.29032258 Z M69.6774194,68.516129 C69.6774194,69.1571613 69.1571613,69.6774194 68.516129,69.6774194 L31.3548387,69.6774194 L26.7096774,69.6774194 C26.0686452,69.6774194 25.5483871,69.1571613 25.5483871,68.516129 L25.5483871,45.5144516 L30.5686452,58.0645161 L42.9677419,58.0645161 L42.9677419,60.3870968 L52.2580645,60.3870968 L52.2580645,58.0645161 L64.6571613,58.0645161 L69.6774194,45.5144516 L69.6774194,68.516129 Z" id="Shape" fill="#616161"></path>
                    <rect id="Rectangle" fill="#FFFFFF" x="4" y="17" width="47" height="10" rx="1"></rect>
                    <rect id="Rectangle" fill="#616161" x="4.64516129" y="27.8709677" width="2.32258065" height="2.32258065"></rect>
                    <rect id="Rectangle" fill="#616161" x="9.29032258" y="27.8709677" width="23.2258065" height="2.32258065"></rect>
                    <rect id="Rectangle" fill="#616161" x="4.64516129" y="37.1612903" width="16.2580645" height="2.32258065"></rect>
                    <rect id="Rectangle" fill="#616161" x="4.64516129" y="49.4516129" width="16.2580645" height="2.32258065"></rect>
                    <rect id="Rectangle" fill="#616161" x="11.6129032" y="56.0967742" width="9.29032258" height="2.32258065"></rect>
                    <rect id="Rectangle" fill="#616161" x="4.64516129" y="56.0967742" width="4.64516129" height="2.32258065"></rect>
                    <rect id="Rectangle" fill="#616161" x="4.64516129" y="65.0322581" width="11.6129032" height="2.32258065"></rect>
                    <rect id="Rectangle" fill="#616161" x="18.5806452" y="65.0322581" width="2.32258065" height="2.32258065"></rect>
                    <path d="M20.9032258,6.96774194 L23.2258065,6.96774194 L23.2258065,12.7741935 C23.2258065,13.4152258 22.7055484,13.9354839 22.0645161,13.9354839 C21.4234839,13.9354839 20.9032258,13.4152258 20.9032258,12.7741935 L20.9032258,11.6129032 L18.5806452,11.6129032 L18.5806452,12.7741935 C18.5806452,14.6949677 20.1437419,16.2580645 22.0645161,16.2580645 C23.9852903,16.2580645 25.5483871,14.6949677 25.5483871,12.7741935 L25.5483871,6.96774194 L27.8709677,6.96774194 L27.8709677,4.64516129 L20.9032258,4.64516129 L20.9032258,6.96774194 Z" id="Path" fill="#616161"></path>
                    <path d="M34.8387097,4.64516129 C32.2769032,4.64516129 30.1935484,6.72851613 30.1935484,9.29032258 L30.1935484,11.6129032 C30.1935484,14.1747097 32.2769032,16.2580645 34.8387097,16.2580645 C37.4005161,16.2580645 39.483871,14.1747097 39.483871,11.6129032 L39.483871,9.29032258 C39.483871,6.72851613 37.4005161,4.64516129 34.8387097,4.64516129 Z M37.1612903,11.6129032 C37.1612903,12.8938065 36.1196129,13.9354839 34.8387097,13.9354839 C33.5578065,13.9354839 32.516129,12.8938065 32.516129,11.6129032 L32.516129,9.29032258 C32.516129,8.00941935 33.5578065,6.96774194 34.8387097,6.96774194 C36.1196129,6.96774194 37.1612903,8.00941935 37.1612903,9.29032258 L37.1612903,11.6129032 Z" id="Shape" fill="#616161"></path>
                </g>
                <line x1="230" y1="375.5" x2="263" y2="375.5" id="Path" stroke="#C32F44" stroke-width="3" stroke-linecap="round" stroke-linejoin="round"></line>
                <g id="e-learning" transform="translate(105.000000, 342.000000)" fill="#767676" fill-rule="nonzero">
                    <path d="M68.9960496,43.4739454 L47.0112754,43.4739454 C45.1428405,43.4770256 43.4853393,44.6736236 42.8942928,46.4461141 L37.6774194,62.1097767 C37.5841442,54.3709443 32.7704338,47.4753344 25.5380447,44.7201985 C31.4611775,41.6380719 34.5116636,34.9077553 32.9251661,28.4219221 C31.3386687,21.9360889 25.5259044,17.373809 18.8488536,17.373809 C12.1718028,17.373809 6.35903854,21.9360889 4.77254108,28.4219221 C3.18604361,34.9077553 6.23652973,41.6380719 12.1596625,44.7201985 C4.85111025,47.4962389 0.0139027289,54.4946538 0,62.3126551 L0,71.0074442 C0,71.8077774 0.648798278,72.4565757 1.44913151,72.4565757 L62.3126551,72.4565757 C62.9361284,72.4565757 63.4894143,72.056896 63.6864318,71.4653697 L71.7465012,47.2895087 C72.0414738,46.4054369 71.8933073,45.4334533 71.3483219,44.6774224 C70.8033365,43.9213915 69.9280323,43.4735656 68.9960496,43.4739454 Z M18.8387097,20.2878412 C22.2893055,20.288736 25.5594169,21.8297375 27.756665,24.4903226 C21.5648871,28.153095 14.543978,30.1825766 7.3528933,30.3882878 C8.10662847,24.6174139 13.0188295,20.2977014 18.8387097,20.2878412 L18.8387097,20.2878412 Z M7.33985112,33.2865509 C15.0848692,33.0807442 22.6479183,30.8935019 29.3072357,26.9335583 C31.2689389,31.0773001 30.6019678,35.9881473 27.606139,39.4585774 C24.6103102,42.9290076 19.8494718,44.3058475 15.4637143,42.9701805 C11.0779568,41.6345135 7.89272802,37.8377268 7.33985112,33.2865509 Z M34.7791563,69.5583127 L2.89826303,69.5583127 L2.89826303,62.3126551 C2.89826303,53.5089895 10.0350441,46.3722084 18.8387097,46.3722084 C27.6423753,46.3722084 34.7791563,53.5089895 34.7791563,62.3126551 L34.7791563,69.5583127 Z M61.2678313,69.5583127 L38.2396824,69.5583127 L45.6302531,47.3634144 C45.8274392,46.7713822 46.3814721,46.3722084 47.0054789,46.3722084 L68.9974988,46.3722084 L61.2678313,69.5583127 Z M68.1091811,0 L47.82134,0 C45.4203402,0 43.4739454,1.94639483 43.4739454,4.34739454 L43.4739454,27.0987593 L37.9208734,35.4283672 C37.6265949,35.8728987 37.6001558,36.4431113 37.852037,36.9129666 C38.1039182,37.3828218 38.5934401,37.6764368 39.1265509,37.6774194 L68.1091811,37.6774194 C70.5101808,37.6774194 72.4565757,35.7310245 72.4565757,33.3300248 L72.4565757,4.34739454 C72.4565757,1.94639483 70.5101808,0 68.1091811,0 Z M69.5583127,33.3300248 C69.5583127,34.130358 68.9095144,34.7791563 68.1091811,34.7791563 L41.8335285,34.7791563 L46.1287543,28.3377667 C46.2870863,28.0993837 46.3717557,27.8196723 46.3722084,27.5334988 L46.3722084,4.34739454 C46.3722084,3.54706131 47.0210067,2.89826303 47.82134,2.89826303 L68.1091811,2.89826303 C68.9095144,2.89826303 69.5583127,3.54706131 69.5583127,4.34739454 L69.5583127,33.3300248 Z M63.7617866,10.1439206 C63.7617866,10.9442538 63.1129883,11.5930521 62.3126551,11.5930521 L53.617866,11.5930521 C52.8175328,11.5930521 52.1687345,10.9442538 52.1687345,10.1439206 C52.1687345,9.34358736 52.8175328,8.69478908 53.617866,8.69478908 L62.3126551,8.69478908 C63.1129883,8.69478908 63.7617866,9.34358736 63.7617866,10.1439206 Z M63.7617866,18.8387097 C63.7617866,19.6390429 63.1129883,20.2878412 62.3126551,20.2878412 L53.617866,20.2878412 C52.8175328,20.2878412 52.1687345,19.6390429 52.1687345,18.8387097 C52.1687345,18.0383764 52.8175328,17.3895782 53.617866,17.3895782 L62.3126551,17.3895782 C63.1129883,17.3895782 63.7617866,18.0383764 63.7617866,18.8387097 Z M63.7617866,27.5334988 C63.7617866,28.333832 63.1129883,28.9826303 62.3126551,28.9826303 L53.617866,28.9826303 C52.8175328,28.9826303 52.1687345,28.333832 52.1687345,27.5334988 C52.1687345,26.7331655 52.8175328,26.0843672 53.617866,26.0843672 L62.3126551,26.0843672 C63.1129883,26.0843672 63.7617866,26.7331655 63.7617866,27.5334988 Z" id="Shape"></path>
                </g>
            </g>
        </g>
    </g>
</svg>
