<?xml version="1.0" encoding="UTF-8"?>
<svg width="36px" height="36px" viewBox="0 0 36 36" version="1.1" xmlns="http://www.w3.org/2000/svg" xmlns:xlink="http://www.w3.org/1999/xlink">
    <!-- Generator: Sketch 64 (93537) - https://sketch.com -->
    <title>Group</title>
    <desc>Created with Sketch.</desc>
    <g id="Page-1" stroke="none" stroke-width="1" fill="none" fill-rule="evenodd">
        <g id="Mobile-Home" transform="translate(-30.000000, -814.000000)">
            <g id="Group" transform="translate(30.000000, 814.000000)">
                <circle id="Oval" stroke="#777777" fill="#FFFFFF" cx="18" cy="18" r="17.5"></circle>
                <g id="feedback" transform="translate(10.653061, 9.183673)" fill="#000000" fill-rule="nonzero">
                    <path d="M10.3893875,17.7244898 L9.99836758,17.7244898 C9.3973016,17.7244898 8.90816327,17.2387274 8.90816327,16.6418098 L8.90816327,12.5622718 C8.90816327,11.9653542 9.3973016,11.4795918 9.99836758,11.4795918 L10.3893875,11.4795918 C10.9904535,11.4795918 11.4795918,11.9653542 11.4795918,12.5622718 L11.4795918,16.6418098 C11.4795918,17.2387274 10.9904535,17.7244898 10.3893875,17.7244898 Z M9.99836758,12.2013785 C9.79849679,12.2013785 9.63496614,12.3637805 9.63496614,12.5622718 L9.63496614,16.6418098 C9.63496614,16.8403012 9.79849679,17.0027032 9.99836758,17.0027032 L10.3893875,17.0027032 C10.5892583,17.0027032 10.752789,16.8403012 10.752789,16.6418098 L10.752789,12.5622718 C10.752789,12.3637805 10.5892583,12.2013785 10.3893875,12.2013785 L9.99836758,12.2013785 Z" id="Shape"></path>
                    <path d="M15.5327596,17.7244898 L14.8865364,17.7244898 C12.1445139,17.7244898 10.9369026,16.8075918 10.8860015,16.7679184 C10.7259211,16.6430204 10.6978886,16.4123265 10.8232972,16.2521633 C10.9487058,16.092 11.1796052,16.0633469 11.341161,16.1897143 C11.3492757,16.1963265 12.4270521,16.9897959 14.8865364,16.9897959 L15.5327596,16.9897959 C16.0439841,16.9897959 16.4770127,16.6253878 16.5611102,16.1221224 L16.9734833,13.6623673 C17.0236467,13.3604082 16.9388115,13.0540408 16.7411085,12.8204082 C16.5419301,12.5867755 16.2527526,12.4530612 15.9458703,12.4530612 L13.8294155,12.4530612 C13.6929414,12.4530612 13.5682705,12.3781224 13.5048285,12.259102 C13.4406488,12.1393469 13.4472881,11.9953469 13.5225332,11.8814694 C13.5240086,11.8792653 13.8131861,11.4237551 13.8131861,10.6795102 C13.8117108,9.92497959 13.4974515,9.64285714 13.2990108,9.64285714 C13.239995,9.64285714 13.2222903,9.65093878 13.2215526,9.65093878 C13.2200772,9.65534694 13.1389304,9.76040816 13.1389304,10.3297959 C13.1389304,11.7631837 11.3640296,12.7226939 11.2880468,12.763102 C11.1073108,12.8586122 10.8852638,12.7910204 10.7893631,12.6117551 C10.6934624,12.4332245 10.7613306,12.2106122 10.9405911,12.115102 C11.3463249,11.8976327 12.400495,11.1533878 12.400495,10.3297959 C12.400495,9.83314286 12.400495,8.90816327 13.2990108,8.90816327 C13.9009722,8.90816327 14.5494085,9.46285714 14.5494085,10.6809796 C14.5494085,11.1012245 14.4756387,11.4531429 14.3908035,11.719102 L15.9443949,11.719102 C16.468898,11.719102 16.9638932,11.9475918 17.3024965,12.3465306 C17.6410997,12.7447347 17.7864262,13.2685714 17.7001156,13.7835918 L17.2877425,16.2433469 C17.1453669,17.1014694 16.4069314,17.7244898 15.5327596,17.7244898 Z" id="Path"></path>
                    <path d="M7.07142857,15.5204082 L1.92857143,15.5204082 C0.915428571,15.5204082 0.0918367347,14.6968163 0.0918367347,13.6836735 L0.0918367347,4.13265306 C0.0918367347,3.1195102 0.915428571,2.29591837 1.92857143,2.29591837 L3.39795918,2.29591837 C3.60073469,2.29591837 3.76530612,2.4604898 3.76530612,2.66326531 C3.76530612,2.86604082 3.60073469,3.03061224 3.39795918,3.03061224 L1.92857143,3.03061224 C1.32097959,3.03061224 0.826530612,3.52506122 0.826530612,4.13265306 L0.826530612,13.6836735 C0.826530612,14.2912653 1.32097959,14.7857143 1.92857143,14.7857143 L7.07142857,14.7857143 C7.27420408,14.7857143 7.43877551,14.9502857 7.43877551,15.1530612 C7.43877551,15.3558367 7.27420408,15.5204082 7.07142857,15.5204082 Z" id="Path"></path>
                    <path d="M8.54081633,4.5 L4.13265306,4.5 C3.52506122,4.5 3.03061224,4.00555102 3.03061224,3.39795918 L3.03061224,1.92857143 C3.03061224,1.72579592 3.19518367,1.56122449 3.39795918,1.56122449 L4.53673469,1.56122449 C4.70718367,0.723673469 5.44995918,0.0918367347 6.33673469,0.0918367347 C7.2235102,0.0918367347 7.96628571,0.723673469 8.13673469,1.56122449 L9.2755102,1.56122449 C9.47828571,1.56122449 9.64285714,1.72579592 9.64285714,1.92857143 L9.64285714,3.39795918 C9.64285714,4.00555102 9.14840816,4.5 8.54081633,4.5 Z M3.76530612,2.29591837 L3.76530612,3.39795918 C3.76530612,3.6 3.93061224,3.76530612 4.13265306,3.76530612 L8.54081633,3.76530612 C8.74285714,3.76530612 8.90816327,3.6 8.90816327,3.39795918 L8.90816327,2.29591837 L7.80612245,2.29591837 C7.60334694,2.29591837 7.43877551,2.13134694 7.43877551,1.92857143 C7.43877551,1.32097959 6.94432653,0.826530612 6.33673469,0.826530612 C5.72914286,0.826530612 5.23469388,1.32097959 5.23469388,1.92857143 C5.23469388,2.13134694 5.07012245,2.29591837 4.86734694,2.29591837 L3.76530612,2.29591837 Z" id="Shape"></path>
                    <path d="M10.0102041,6.70408163 L2.66326531,6.70408163 C2.4604898,6.70408163 2.29591837,6.5395102 2.29591837,6.33673469 C2.29591837,6.13395918 2.4604898,5.96938776 2.66326531,5.96938776 L10.0102041,5.96938776 C10.2129796,5.96938776 10.377551,6.13395918 10.377551,6.33673469 C10.377551,6.5395102 10.2129796,6.70408163 10.0102041,6.70408163 Z" id="Path"></path>
                    <path d="M10.0102041,8.90816327 L2.66326531,8.90816327 C2.4604898,8.90816327 2.29591837,8.74359184 2.29591837,8.54081633 C2.29591837,8.33804082 2.4604898,8.17346939 2.66326531,8.17346939 L10.0102041,8.17346939 C10.2129796,8.17346939 10.377551,8.33804082 10.377551,8.54081633 C10.377551,8.74359184 10.2129796,8.90816327 10.0102041,8.90816327 Z" id="Path"></path>
                    <path d="M7.07142857,11.1122449 L2.66326531,11.1122449 C2.4604898,11.1122449 2.29591837,10.9476735 2.29591837,10.744898 C2.29591837,10.5421224 2.4604898,10.377551 2.66326531,10.377551 L7.07142857,10.377551 C7.27420408,10.377551 7.43877551,10.5421224 7.43877551,10.744898 C7.43877551,10.9476735 7.27420408,11.1122449 7.07142857,11.1122449 Z" id="Path"></path>
                    <path d="M12.2142857,7.43877551 C12.0115102,7.43877551 11.8469388,7.27420408 11.8469388,7.07142857 L11.8469388,4.13265306 C11.8469388,3.52506122 11.3524898,3.03061224 10.744898,3.03061224 L9.2755102,3.03061224 C9.07273469,3.03061224 8.90816327,2.86604082 8.90816327,2.66326531 C8.90816327,2.4604898 9.07273469,2.29591837 9.2755102,2.29591837 L10.744898,2.29591837 C11.7580408,2.29591837 12.5816327,3.1195102 12.5816327,4.13265306 L12.5816327,7.07142857 C12.5816327,7.27420408 12.4170612,7.43877551 12.2142857,7.43877551 Z" id="Path"></path>
                </g>
            </g>
        </g>
    </g>
</svg>