<?xml version="1.0" encoding="UTF-8"?>
<svg width="36px" height="36px" viewBox="0 0 36 36" version="1.1" xmlns="http://www.w3.org/2000/svg" xmlns:xlink="http://www.w3.org/1999/xlink">
    <!-- Generator: Sketch 64 (93537) - https://sketch.com -->
    <title>Group 4</title>
    <desc>Created with Sketch.</desc>
    <g id="Page-1" stroke="none" stroke-width="1" fill="none" fill-rule="evenodd">
        <g id="Mobile-Home" transform="translate(-30.000000, -1168.000000)">
            <g id="Group-4" transform="translate(30.000000, 1168.000000)">
                <circle id="Oval-Copy-2" stroke="#777777" fill="#FFFFFF" cx="18" cy="18" r="17.5"></circle>
                <g id="job-search" transform="translate(9.918367, 9.183673)" fill-rule="nonzero">
                    <path d="M16.8712969,9.1925609 L14.8805135,9.1925609 L14.8805135,7.77057275 C14.8805135,7.30017907 14.4977143,6.91737986 14.0273206,6.91737986 L13.742923,6.91737986 L13.742923,0.0918367347 L3.95566294,0.0918367347 L0.0918367347,3.95566294 L0.0918367347,17.7244898 L6.63298223,17.7244898 L7.77057275,17.7244898 L16.8712969,17.7244898 C17.3416906,17.7244898 17.7244898,17.3416906 17.7244898,16.8712969 L17.7244898,10.0457538 C17.7244898,9.57536011 17.3416906,9.1925609 16.8712969,9.1925609 Z M14.8805135,9.76135616 L16.8712969,9.76135616 C16.9611666,9.76135616 17.0379539,9.80572219 17.0899987,9.87084924 L15.5411692,13.742923 L12.8897301,13.742923 L12.8897301,13.1741277 L10.614549,13.1741277 L10.614549,13.742923 L7.96310994,13.742923 L6.41428045,9.87084924 C6.46632521,9.80572219 6.54311257,9.76135616 6.63298223,9.76135616 L8.62376564,9.76135616 L9.76135616,9.76135616 L13.742923,9.76135616 L14.8805135,9.76135616 Z M12.3209348,13.742923 L12.3209348,14.3117182 L11.1833443,14.3117182 L11.1833443,13.742923 L12.3209348,13.742923 Z M10.3301514,9.1925609 L10.3301514,8.62376564 L13.1741277,8.62376564 L13.1741277,9.1925609 L10.3301514,9.1925609 Z M14.0273206,7.48617512 C14.1843081,7.48617512 14.3117182,7.61358525 14.3117182,7.77057275 L14.3117182,9.1925609 L13.742923,9.1925609 L13.742923,8.05497038 L9.76135616,8.05497038 L9.76135616,9.1925609 L9.1925609,9.1925609 L9.1925609,7.77057275 C9.1925609,7.61358525 9.31997103,7.48617512 9.47695853,7.48617512 L14.0273206,7.48617512 Z M3.78900592,1.06277024 L3.78900592,3.78900592 L1.06277024,3.78900592 L3.78900592,1.06277024 Z M5.8321185,17.1556945 L0.660631995,17.1556945 L0.660631995,4.35780118 L1.22942725,4.35780118 L1.22942725,6.3485846 L12.0365372,6.3485846 L12.0365372,4.02107439 C12.3667228,3.90333377 12.6053325,3.59049638 12.6053325,3.22021066 C12.6053325,3.00094009 12.5197288,2.80271494 12.3835023,2.6514154 C12.5197288,2.50011587 12.6053325,2.30189072 12.6053325,2.08262014 C12.6053325,1.61222646 12.2225332,1.22942725 11.7521396,1.22942725 L10.3301514,1.22942725 L10.3301514,2.36701777 L10.3301514,2.93581303 L10.3301514,4.07340355 L11.4677419,4.07340355 L11.4677419,5.77978934 L1.79822251,5.77978934 L1.79822251,4.35780118 L4.35780118,4.35780118 L4.35780118,0.660631995 L13.1741277,0.660631995 L13.1741277,6.91737986 L9.47695853,6.91737986 C9.00656485,6.91737986 8.62376564,7.30017907 8.62376564,7.77057275 L8.62376564,9.1925609 L6.63298223,9.1925609 C6.16258855,9.1925609 5.77978934,9.57536011 5.77978934,10.0457538 L5.77978934,16.8712969 C5.77978934,16.9714049 5.80026596,17.0663937 5.8321185,17.1556945 Z M11.7521396,2.93581303 C11.9091271,2.93581303 12.0365372,3.06322317 12.0365372,3.22021066 C12.0365372,3.37719816 11.9091271,3.50460829 11.7521396,3.50460829 L10.8989467,3.50460829 L10.8989467,2.93581303 L11.7521396,2.93581303 Z M10.8989467,2.36701777 L10.8989467,1.79822251 L11.7521396,1.79822251 C11.9091271,1.79822251 12.0365372,1.92563265 12.0365372,2.08262014 C12.0365372,2.23960764 11.9091271,2.36701777 11.7521396,2.36701777 L10.8989467,2.36701777 Z M17.1556945,16.8712969 C17.1556945,17.0282844 17.0282844,17.1556945 16.8712969,17.1556945 L7.77057275,17.1556945 L6.63298223,17.1556945 C6.47599473,17.1556945 6.3485846,17.0282844 6.3485846,16.8712969 L6.3485846,11.238233 L7.57803555,14.3117182 L10.614549,14.3117182 L10.614549,14.8805135 L12.8897301,14.8805135 L12.8897301,14.3117182 L15.9262436,14.3117182 L17.1556945,11.238233 L17.1556945,16.8712969 Z" id="Shape" fill="#616161"></path>
                    <rect id="Rectangle" fill="#FFFFFF" x="1.19387755" y="4.13265306" width="11.3877551" height="2.57142857" rx="1"></rect>
                    <rect id="Rectangle" fill="#616161" x="1.19387755" y="6.70408163" width="1" height="1"></rect>
                    <rect id="Rectangle" fill="#616161" x="2.29591837" y="6.70408163" width="5.51020408" height="1"></rect>
                    <rect id="Rectangle" fill="#616161" x="1.19387755" y="8.90816327" width="4.04081633" height="1"></rect>
                    <rect id="Rectangle" fill="#616161" x="1.19387755" y="11.8469388" width="4.04081633" height="1"></rect>
                    <rect id="Rectangle" fill="#616161" x="3.03061224" y="13.6836735" width="2.20408163" height="1"></rect>
                    <rect id="Rectangle" fill="#616161" x="1.19387755" y="13.6836735" width="1.10204082" height="1"></rect>
                    <rect id="Rectangle" fill="#616161" x="1.19387755" y="15.8877551" width="2.93877551" height="1"></rect>
                    <rect id="Rectangle" fill="#616161" x="4.5" y="15.8877551" width="1" height="1"></rect>
                    <path d="M5.05102041,1.78163265 L5.60204082,1.78163265 L5.60204082,3.25102041 C5.60204082,3.41324082 5.47861224,3.54489796 5.32653061,3.54489796 C5.17444898,3.54489796 5.05102041,3.41324082 5.05102041,3.25102041 L5.05102041,2.95714286 L4.5,2.95714286 L4.5,3.25102041 C4.5,3.73709388 4.87083673,4.13265306 5.32653061,4.13265306 C5.78222449,4.13265306 6.15306122,3.73709388 6.15306122,3.25102041 L6.15306122,1.78163265 L6.70408163,1.78163265 L6.70408163,1.19387755 L5.05102041,1.19387755 L5.05102041,1.78163265 Z" id="Path" fill="#616161"></path>
                    <path d="M8.54081633,1.19387755 C7.93304082,1.19387755 7.43877551,1.72109388 7.43877551,2.36938776 L7.43877551,2.95714286 C7.43877551,3.60543673 7.93304082,4.13265306 8.54081633,4.13265306 C9.14859184,4.13265306 9.64285714,3.60543673 9.64285714,2.95714286 L9.64285714,2.36938776 C9.64285714,1.72109388 9.14859184,1.19387755 8.54081633,1.19387755 Z M9.09183673,2.95714286 C9.09183673,3.2812898 8.84470408,3.54489796 8.54081633,3.54489796 C8.23692857,3.54489796 7.98979592,3.2812898 7.98979592,2.95714286 L7.98979592,2.36938776 C7.98979592,2.04524082 8.23692857,1.78163265 8.54081633,1.78163265 C8.84470408,1.78163265 9.09183673,2.04524082 9.09183673,2.36938776 L9.09183673,2.95714286 Z" id="Shape" fill="#616161"></path>
                </g>
            </g>
        </g>
    </g>
</svg>