<?xml version="1.0" encoding="UTF-8"?>
<svg width="36px" height="36px" viewBox="0 0 36 36" version="1.1" xmlns="http://www.w3.org/2000/svg" xmlns:xlink="http://www.w3.org/1999/xlink">
    <!-- Generator: Sketch 64 (93537) - https://sketch.com -->
    <title>Group 2</title>
    <desc>Created with Sketch.</desc>
    <g id="Page-1" stroke="none" stroke-width="1" fill="none" fill-rule="evenodd">
        <g id="Mobile-Home" transform="translate(-30.000000, -979.000000)">
            <g id="Group-2" transform="translate(30.000000, 979.000000)">
                <circle id="Oval-Copy" stroke="#777777" fill="#FFFFFF" cx="18" cy="18" r="17.5"></circle>
                <g id="e-learning" transform="translate(9.183673, 9.551020)" fill="#151A6A" fill-rule="nonzero">
                    <path d="M17.5819592,11.1122449 L12.0089388,11.1122449 C11.5353007,11.1130257 11.1151332,11.4163568 10.9653061,11.8656735 L9.64285714,15.8363265 C9.61921239,13.8745747 8.39896305,12.1265752 6.56559184,11.4281633 C8.06707371,10.646861 8.84035531,8.94076241 8.43818685,7.29663905 C8.0360184,5.65251568 6.56251433,4.4960026 4.86991837,4.4960026 C3.1773224,4.4960026 1.70381834,5.65251568 1.30164988,7.29663905 C0.899481422,8.94076241 1.67276302,10.646861 3.1742449,11.4281633 C1.32156674,12.1318744 0.0953610007,13.9059344 0.0918367347,15.8877551 L0.0918367347,18.0918367 C0.0918367347,18.2947168 0.256303561,18.4591837 0.459183673,18.4591837 L15.8877551,18.4591837 C16.0458022,18.4591837 16.1860572,18.3578671 16.236,18.2079184 L18.2791837,12.0794694 C18.3539576,11.855362 18.3163982,11.6089695 18.1782474,11.4173198 C18.0400965,11.22567 17.8182117,11.1121486 17.5819592,11.1122449 Z M4.86734694,5.23469388 C5.74205416,5.23492071 6.57100959,5.62555618 7.128,6.3 C5.55841805,7.22849284 3.77865586,7.74295535 1.9557551,7.79510204 C2.14682286,6.33221696 3.39203904,5.2371934 4.86734694,5.23469388 L4.86734694,5.23469388 Z M1.95244898,8.52979592 C3.91576885,8.47762506 5.83296056,7.92317104 7.52106122,6.91934694 C8.01834228,7.96976289 7.84926874,9.21463589 7.08984248,10.094371 C6.33041622,10.9741061 5.12356961,11.3231275 4.011804,10.9845432 C2.90003838,10.6459589 2.09260026,9.6834942 1.95244898,8.52979592 Z M8.90816327,17.7244898 L0.826530612,17.7244898 L0.826530612,15.8877551 C0.826530612,13.6560739 2.6356657,11.8469388 4.86734694,11.8469388 C7.09902817,11.8469388 8.90816327,13.6560739 8.90816327,15.8877551 L8.90816327,17.7244898 Z M15.622898,17.7244898 L9.78538776,17.7244898 L11.6588571,12.0982041 C11.7088428,11.9481272 11.8492871,11.8469388 12.0074694,11.8469388 L17.5823265,11.8469388 L15.622898,17.7244898 Z M17.3571429,0.0918367347 L12.2142857,0.0918367347 C11.6056454,0.0918367347 11.1122449,0.585237214 11.1122449,1.19387755 L11.1122449,6.96122449 L9.70457143,9.07273469 C9.62997342,9.18542099 9.62327126,9.32996679 9.68712176,9.44907253 C9.75097226,9.56817828 9.8750634,9.64260808 10.0102041,9.64285714 L17.3571429,9.64285714 C17.9657832,9.64285714 18.4591837,9.14945666 18.4591837,8.54081633 L18.4591837,1.19387755 C18.4591837,0.585237214 17.9657832,0.0918367347 17.3571429,0.0918367347 Z M17.7244898,8.54081633 C17.7244898,8.74369644 17.560023,8.90816327 17.3571429,8.90816327 L10.6964082,8.90816327 L11.7852245,7.27530612 C11.8253608,7.21487731 11.846824,7.14397201 11.8469388,7.07142857 L11.8469388,1.19387755 C11.8469388,0.990997439 12.0114056,0.826530612 12.2142857,0.826530612 L17.3571429,0.826530612 C17.560023,0.826530612 17.7244898,0.990997439 17.7244898,1.19387755 L17.7244898,8.54081633 Z M16.255102,2.66326531 C16.255102,2.86614542 16.0906352,3.03061224 15.8877551,3.03061224 L13.6836735,3.03061224 C13.4807934,3.03061224 13.3163265,2.86614542 13.3163265,2.66326531 C13.3163265,2.46038519 13.4807934,2.29591837 13.6836735,2.29591837 L15.8877551,2.29591837 C16.0906352,2.29591837 16.255102,2.46038519 16.255102,2.66326531 Z M16.255102,4.86734694 C16.255102,5.07022705 16.0906352,5.23469388 15.8877551,5.23469388 L13.6836735,5.23469388 C13.4807934,5.23469388 13.3163265,5.07022705 13.3163265,4.86734694 C13.3163265,4.66446683 13.4807934,4.5 13.6836735,4.5 L15.8877551,4.5 C16.0906352,4.5 16.255102,4.66446683 16.255102,4.86734694 Z M16.255102,7.07142857 C16.255102,7.27430868 16.0906352,7.43877551 15.8877551,7.43877551 L13.6836735,7.43877551 C13.4807934,7.43877551 13.3163265,7.27430868 13.3163265,7.07142857 C13.3163265,6.86854846 13.4807934,6.70408163 13.6836735,6.70408163 L15.8877551,6.70408163 C16.0906352,6.70408163 16.255102,6.86854846 16.255102,7.07142857 Z" id="Shape"></path>
                </g>
            </g>
        </g>
    </g>
</svg>