<?xml version="1.0" encoding="UTF-8"?>
<svg width="32px" height="26px" viewBox="0 0 32 26" version="1.1" xmlns="http://www.w3.org/2000/svg" xmlns:xlink="http://www.w3.org/1999/xlink">
    <!-- Generator: sketchtool 64 (101010) - https://sketch.com -->
    <title>00039ACC-7E45-4DE9-8113-C4D5F96EBA32</title>
    <desc>Created with sketchtool.</desc>
    <g id="Page-1" stroke="none" stroke-width="1" fill="none" fill-rule="evenodd">
        <g id="Landing-Page-" transform="translate(-321.000000, -4864.000000)" fill="#212121" fill-rule="nonzero">
            <g id="Group-13" transform="translate(-216.000000, 4616.000000)">
                <g id="medium" transform="translate(537.000000, 248.000000)">
                    <path d="M29.4466667,3.019 L32,0.576333333 L32,0.0416666667 L23.1546667,0.0416666667 L16.8506667,15.7323333 L9.67866667,0.0416666667 L0.404,0.0416666667 L0.404,0.576333333 L3.38666667,4.167 C3.67733333,4.43233333 3.82933333,4.82033333 3.79066667,5.211 L3.79066667,19.3216667 C3.88266667,19.8296667 3.71733333,20.3523333 3.36,20.7216667 L0,24.7936667 L0,25.3216667 L9.52666667,25.3216667 L9.52666667,24.787 L6.16666667,20.7216667 C5.80266667,20.351 5.63066667,19.8376667 5.704,19.3216667 L5.704,7.11633333 L14.0666667,25.3283333 L15.0386667,25.3283333 L22.2293333,7.11633333 L22.2293333,21.6243333 C22.2293333,22.007 22.2293333,22.0856667 21.9786667,22.3363333 L19.392,24.839 L19.392,25.375 L31.9413333,25.375 L31.9413333,24.8403333 L29.448,22.399 C29.2293333,22.2336667 29.116,21.9563333 29.1626667,21.687 L29.1626667,3.731 C29.116,3.46033333 29.228,3.183 29.4466667,3.019 L29.4466667,3.019 Z" id="Path"></path>
                </g>
            </g>
        </g>
    </g>
</svg>