<?xml version="1.0" encoding="UTF-8"?>
<svg width="73px" height="73px" viewBox="0 0 73 73" version="1.1" xmlns="http://www.w3.org/2000/svg" xmlns:xlink="http://www.w3.org/1999/xlink">
    <!-- Generator: sketchtool 64 (101010) - https://sketch.com -->
    <title>D813C199-8A28-4E27-835A-992EECD307CF</title>
    <desc>Created with sketchtool.</desc>
    <g id="Page-1" stroke="none" stroke-width="1" fill="none" fill-rule="evenodd">
        <g id="Landing-Page-" transform="translate(-684.000000, -1609.000000)" fill="#151A6A" fill-rule="nonzero">
            <g id="e-learning" transform="translate(684.000000, 1609.000000)">
                <path d="M68.9960496,43.4739454 L47.0112754,43.4739454 C45.1428405,43.4770256 43.4853393,44.6736236 42.8942928,46.4461141 L37.6774194,62.1097767 C37.5841442,54.3709443 32.7704338,47.4753344 25.5380447,44.7201985 C31.4611775,41.6380719 34.5116636,34.9077553 32.9251661,28.4219221 C31.3386687,21.9360889 25.5259044,17.373809 18.8488536,17.373809 C12.1718028,17.373809 6.35903854,21.9360889 4.77254108,28.4219221 C3.18604361,34.9077553 6.23652973,41.6380719 12.1596625,44.7201985 C4.85111025,47.4962389 0.0139027289,54.4946538 0,62.3126551 L0,71.0074442 C0,71.8077774 0.648798278,72.4565757 1.44913151,72.4565757 L62.3126551,72.4565757 C62.9361284,72.4565757 63.4894143,72.056896 63.6864318,71.4653697 L71.7465012,47.2895087 C72.0414738,46.4054369 71.8933073,45.4334533 71.3483219,44.6774224 C70.8033365,43.9213915 69.9280323,43.4735656 68.9960496,43.4739454 Z M18.8387097,20.2878412 C22.2893055,20.288736 25.5594169,21.8297375 27.756665,24.4903226 C21.5648871,28.153095 14.543978,30.1825766 7.3528933,30.3882878 C8.10662847,24.6174139 13.0188295,20.2977014 18.8387097,20.2878412 L18.8387097,20.2878412 Z M7.33985112,33.2865509 C15.0848692,33.0807442 22.6479183,30.8935019 29.3072357,26.9335583 C31.2689389,31.0773001 30.6019678,35.9881473 27.606139,39.4585774 C24.6103102,42.9290076 19.8494718,44.3058475 15.4637143,42.9701805 C11.0779568,41.6345135 7.89272802,37.8377268 7.33985112,33.2865509 Z M34.7791563,69.5583127 L2.89826303,69.5583127 L2.89826303,62.3126551 C2.89826303,53.5089895 10.0350441,46.3722084 18.8387097,46.3722084 C27.6423753,46.3722084 34.7791563,53.5089895 34.7791563,62.3126551 L34.7791563,69.5583127 Z M61.2678313,69.5583127 L38.2396824,69.5583127 L45.6302531,47.3634144 C45.8274392,46.7713822 46.3814721,46.3722084 47.0054789,46.3722084 L68.9974988,46.3722084 L61.2678313,69.5583127 Z M68.1091811,0 L47.82134,0 C45.4203402,0 43.4739454,1.94639483 43.4739454,4.34739454 L43.4739454,27.0987593 L37.9208734,35.4283672 C37.6265949,35.8728987 37.6001558,36.4431113 37.852037,36.9129666 C38.1039182,37.3828218 38.5934401,37.6764368 39.1265509,37.6774194 L68.1091811,37.6774194 C70.5101808,37.6774194 72.4565757,35.7310245 72.4565757,33.3300248 L72.4565757,4.34739454 C72.4565757,1.94639483 70.5101808,0 68.1091811,0 Z M69.5583127,33.3300248 C69.5583127,34.130358 68.9095144,34.7791563 68.1091811,34.7791563 L41.8335285,34.7791563 L46.1287543,28.3377667 C46.2870863,28.0993837 46.3717557,27.8196723 46.3722084,27.5334988 L46.3722084,4.34739454 C46.3722084,3.54706131 47.0210067,2.89826303 47.82134,2.89826303 L68.1091811,2.89826303 C68.9095144,2.89826303 69.5583127,3.54706131 69.5583127,4.34739454 L69.5583127,33.3300248 Z M63.7617866,10.1439206 C63.7617866,10.9442538 63.1129883,11.5930521 62.3126551,11.5930521 L53.617866,11.5930521 C52.8175328,11.5930521 52.1687345,10.9442538 52.1687345,10.1439206 C52.1687345,9.34358736 52.8175328,8.69478908 53.617866,8.69478908 L62.3126551,8.69478908 C63.1129883,8.69478908 63.7617866,9.34358736 63.7617866,10.1439206 Z M63.7617866,18.8387097 C63.7617866,19.6390429 63.1129883,20.2878412 62.3126551,20.2878412 L53.617866,20.2878412 C52.8175328,20.2878412 52.1687345,19.6390429 52.1687345,18.8387097 C52.1687345,18.0383764 52.8175328,17.3895782 53.617866,17.3895782 L62.3126551,17.3895782 C63.1129883,17.3895782 63.7617866,18.0383764 63.7617866,18.8387097 Z M63.7617866,27.5334988 C63.7617866,28.333832 63.1129883,28.9826303 62.3126551,28.9826303 L53.617866,28.9826303 C52.8175328,28.9826303 52.1687345,28.333832 52.1687345,27.5334988 C52.1687345,26.7331655 52.8175328,26.0843672 53.617866,26.0843672 L62.3126551,26.0843672 C63.1129883,26.0843672 63.7617866,26.7331655 63.7617866,27.5334988 Z" id="Shape"></path>
            </g>
        </g>
    </g>
</svg>