<?xml version="1.0" encoding="UTF-8"?>
<svg width="72px" height="72px" viewBox="0 0 72 72" version="1.1" xmlns="http://www.w3.org/2000/svg" xmlns:xlink="http://www.w3.org/1999/xlink">
    <!-- Generator: sketchtool 64 (101010) - https://sketch.com -->
    <title>325A8B37-6ADE-45B3-AB94-02B0E8F9D949</title>
    <desc>Created with sketchtool.</desc>
    <g id="Page-1" stroke="none" stroke-width="1" fill="none" fill-rule="evenodd">
        <g id="Landing-Page-" transform="translate(-690.000000, -1320.000000)" fill="#000000" fill-rule="nonzero">
            <g id="feedback" transform="translate(690.000000, 1320.000000)">
                <path d="M42.114,72 L40.5,72 C38.019,72 36,69.981 36,67.5 L36,50.544 C36,48.063 38.019,46.044 40.5,46.044 L42.114,46.044 C44.595,46.044 46.614,48.063 46.614,50.544 L46.614,67.5 C46.614,69.981 44.595,72 42.114,72 Z M40.5,49.044 C39.675,49.044 39,49.719 39,50.544 L39,67.5 C39,68.325 39.675,69 40.5,69 L42.114,69 C42.939,69 43.614,68.325 43.614,67.5 L43.614,50.544 C43.614,49.719 42.939,49.044 42.114,49.044 L40.5,49.044 Z" id="Shape"></path>
                <path d="M63.084,72 L60.456,72 C49.305,72 44.394,68.256 44.187,68.094 C43.536,67.584 43.422,66.642 43.932,65.988 C44.442,65.334 45.381,65.217 46.038,65.733 C46.071,65.76 50.454,69 60.456,69 L63.084,69 C65.163,69 66.924,67.512 67.266,65.457 L68.943,55.413 C69.147,54.18 68.802,52.929 67.998,51.975 C67.188,51.021 66.012,50.475 64.764,50.475 L56.157,50.475 C55.602,50.475 55.095,50.169 54.837,49.683 C54.576,49.194 54.603,48.606 54.909,48.141 C54.915,48.132 56.091,46.272 56.091,43.233 C56.085,40.152 54.807,39 54,39 C53.76,39 53.688,39.033 53.685,39.033 C53.679,39.051 53.349,39.48 53.349,41.805 C53.349,47.658 46.131,51.576 45.822,51.741 C45.087,52.131 44.184,51.855 43.794,51.123 C43.404,50.394 43.68,49.485 44.409,49.095 C46.059,48.207 50.346,45.168 50.346,41.805 C50.346,39.777 50.346,36 54,36 C56.448,36 59.085,38.265 59.085,43.239 C59.085,44.955 58.785,46.392 58.44,47.478 L64.758,47.478 C66.891,47.478 68.904,48.411 70.281,50.04 C71.658,51.666 72.249,53.805 71.898,55.908 L70.221,65.952 C69.642,69.456 66.639,72 63.084,72 Z" id="Path"></path>
                <path d="M28.5,63 L7.5,63 C3.363,63 0,59.637 0,55.5 L0,16.5 C0,12.363 3.363,9 7.5,9 L13.5,9 C14.328,9 15,9.672 15,10.5 C15,11.328 14.328,12 13.5,12 L7.5,12 C5.019,12 3,14.019 3,16.5 L3,55.5 C3,57.981 5.019,60 7.5,60 L28.5,60 C29.328,60 30,60.672 30,61.5 C30,62.328 29.328,63 28.5,63 Z" id="Path"></path>
                <path d="M34.5,18 L16.5,18 C14.019,18 12,15.981 12,13.5 L12,7.5 C12,6.672 12.672,6 13.5,6 L18.15,6 C18.846,2.58 21.879,0 25.5,0 C29.121,0 32.154,2.58 32.85,6 L37.5,6 C38.328,6 39,6.672 39,7.5 L39,13.5 C39,15.981 36.981,18 34.5,18 Z M15,9 L15,13.5 C15,14.325 15.675,15 16.5,15 L34.5,15 C35.325,15 36,14.325 36,13.5 L36,9 L31.5,9 C30.672,9 30,8.328 30,7.5 C30,5.019 27.981,3 25.5,3 C23.019,3 21,5.019 21,7.5 C21,8.328 20.328,9 19.5,9 L15,9 Z" id="Shape"></path>
                <path d="M40.5,27 L10.5,27 C9.672,27 9,26.328 9,25.5 C9,24.672 9.672,24 10.5,24 L40.5,24 C41.328,24 42,24.672 42,25.5 C42,26.328 41.328,27 40.5,27 Z" id="Path"></path>
                <path d="M40.5,36 L10.5,36 C9.672,36 9,35.328 9,34.5 C9,33.672 9.672,33 10.5,33 L40.5,33 C41.328,33 42,33.672 42,34.5 C42,35.328 41.328,36 40.5,36 Z" id="Path"></path>
                <path d="M28.5,45 L10.5,45 C9.672,45 9,44.328 9,43.5 C9,42.672 9.672,42 10.5,42 L28.5,42 C29.328,42 30,42.672 30,43.5 C30,44.328 29.328,45 28.5,45 Z" id="Path"></path>
                <path d="M49.5,30 C48.672,30 48,29.328 48,28.5 L48,16.5 C48,14.019 45.981,12 43.5,12 L37.5,12 C36.672,12 36,11.328 36,10.5 C36,9.672 36.672,9 37.5,9 L43.5,9 C47.637,9 51,12.363 51,16.5 L51,28.5 C51,29.328 50.328,30 49.5,30 Z" id="Path"></path>
            </g>
        </g>
    </g>
</svg>