<?xml version="1.0" encoding="UTF-8"?>
<svg width="72px" height="72px" viewBox="0 0 72 72" version="1.1" xmlns="http://www.w3.org/2000/svg" xmlns:xlink="http://www.w3.org/1999/xlink">
    <!-- Generator: sketchtool 64 (101010) - https://sketch.com -->
    <title>43ECE8EF-FDBD-4B5F-9633-38C2EB2401D5</title>
    <desc>Created with sketchtool.</desc>
    <g id="Page-1" stroke="none" stroke-width="1" fill="none" fill-rule="evenodd">
        <g id="Landing-Page-" transform="translate(-686.000000, -1927.000000)" fill-rule="nonzero">
            <g id="job-search" transform="translate(686.000000, 1927.000000)">
                <path d="M68.516129,37.1612903 L60.3870968,37.1612903 L60.3870968,31.3548387 C60.3870968,29.4340645 58.824,27.8709677 56.9032258,27.8709677 L55.7419355,27.8709677 L55.7419355,0 L15.7772903,0 L0,15.7772903 L0,72 L26.7096774,72 L31.3548387,72 L68.516129,72 C70.4369032,72 72,70.4369032 72,68.516129 L72,40.6451613 C72,38.7243871 70.4369032,37.1612903 68.516129,37.1612903 Z M60.3870968,39.483871 L68.516129,39.483871 C68.8830968,39.483871 69.1966452,39.6650323 69.4091613,39.9309677 L63.0847742,55.7419355 L52.2580645,55.7419355 L52.2580645,53.4193548 L42.9677419,53.4193548 L42.9677419,55.7419355 L32.1410323,55.7419355 L25.8166452,39.9309677 C26.0291613,39.6650323 26.3427097,39.483871 26.7096774,39.483871 L34.8387097,39.483871 L39.483871,39.483871 L55.7419355,39.483871 L60.3870968,39.483871 Z M49.9354839,55.7419355 L49.9354839,58.0645161 L45.2903226,58.0645161 L45.2903226,55.7419355 L49.9354839,55.7419355 Z M41.8064516,37.1612903 L41.8064516,34.8387097 L53.4193548,34.8387097 L53.4193548,37.1612903 L41.8064516,37.1612903 Z M56.9032258,30.1935484 C57.5442581,30.1935484 58.0645161,30.7138065 58.0645161,31.3548387 L58.0645161,37.1612903 L55.7419355,37.1612903 L55.7419355,32.516129 L39.483871,32.516129 L39.483871,37.1612903 L37.1612903,37.1612903 L37.1612903,31.3548387 C37.1612903,30.7138065 37.6815484,30.1935484 38.3225806,30.1935484 L56.9032258,30.1935484 Z M15.0967742,3.96464516 L15.0967742,15.0967742 L3.96464516,15.0967742 L15.0967742,3.96464516 Z M23.4394839,69.6774194 L2.32258065,69.6774194 L2.32258065,17.4193548 L4.64516129,17.4193548 L4.64516129,25.5483871 L48.7741935,25.5483871 L48.7741935,16.0443871 C50.1224516,15.5636129 51.0967742,14.2861935 51.0967742,12.7741935 C51.0967742,11.8788387 50.7472258,11.0694194 50.1909677,10.4516129 C50.7472258,9.83380645 51.0967742,9.0243871 51.0967742,8.12903226 C51.0967742,6.20825806 49.5336774,4.64516129 47.6129032,4.64516129 L41.8064516,4.64516129 L41.8064516,9.29032258 L41.8064516,11.6129032 L41.8064516,16.2580645 L46.4516129,16.2580645 L46.4516129,23.2258065 L6.96774194,23.2258065 L6.96774194,17.4193548 L17.4193548,17.4193548 L17.4193548,2.32258065 L53.4193548,2.32258065 L53.4193548,27.8709677 L38.3225806,27.8709677 C36.4018065,27.8709677 34.8387097,29.4340645 34.8387097,31.3548387 L34.8387097,37.1612903 L26.7096774,37.1612903 C24.7889032,37.1612903 23.2258065,38.7243871 23.2258065,40.6451613 L23.2258065,68.516129 C23.2258065,68.9249032 23.3094194,69.3127742 23.4394839,69.6774194 Z M47.6129032,11.6129032 C48.2539355,11.6129032 48.7741935,12.1331613 48.7741935,12.7741935 C48.7741935,13.4152258 48.2539355,13.9354839 47.6129032,13.9354839 L44.1290323,13.9354839 L44.1290323,11.6129032 L47.6129032,11.6129032 Z M44.1290323,9.29032258 L44.1290323,6.96774194 L47.6129032,6.96774194 C48.2539355,6.96774194 48.7741935,7.488 48.7741935,8.12903226 C48.7741935,8.77006452 48.2539355,9.29032258 47.6129032,9.29032258 L44.1290323,9.29032258 Z M69.6774194,68.516129 C69.6774194,69.1571613 69.1571613,69.6774194 68.516129,69.6774194 L31.3548387,69.6774194 L26.7096774,69.6774194 C26.0686452,69.6774194 25.5483871,69.1571613 25.5483871,68.516129 L25.5483871,45.5144516 L30.5686452,58.0645161 L42.9677419,58.0645161 L42.9677419,60.3870968 L52.2580645,60.3870968 L52.2580645,58.0645161 L64.6571613,58.0645161 L69.6774194,45.5144516 L69.6774194,68.516129 Z" id="Shape" fill="#616161"></path>
                <rect id="Rectangle" fill="#FFFFFF" x="4" y="17" width="47" height="10" rx="1"></rect>
                <rect id="Rectangle" fill="#616161" x="4.64516129" y="27.8709677" width="2.32258065" height="2.32258065"></rect>
                <rect id="Rectangle" fill="#616161" x="9.29032258" y="27.8709677" width="23.2258065" height="2.32258065"></rect>
                <rect id="Rectangle" fill="#616161" x="4.64516129" y="37.1612903" width="16.2580645" height="2.32258065"></rect>
                <rect id="Rectangle" fill="#616161" x="4.64516129" y="49.4516129" width="16.2580645" height="2.32258065"></rect>
                <rect id="Rectangle" fill="#616161" x="11.6129032" y="56.0967742" width="9.29032258" height="2.32258065"></rect>
                <rect id="Rectangle" fill="#616161" x="4.64516129" y="56.0967742" width="4.64516129" height="2.32258065"></rect>
                <rect id="Rectangle" fill="#616161" x="4.64516129" y="65.0322581" width="11.6129032" height="2.32258065"></rect>
                <rect id="Rectangle" fill="#616161" x="18.5806452" y="65.0322581" width="2.32258065" height="2.32258065"></rect>
                <path d="M20.9032258,6.96774194 L23.2258065,6.96774194 L23.2258065,12.7741935 C23.2258065,13.4152258 22.7055484,13.9354839 22.0645161,13.9354839 C21.4234839,13.9354839 20.9032258,13.4152258 20.9032258,12.7741935 L20.9032258,11.6129032 L18.5806452,11.6129032 L18.5806452,12.7741935 C18.5806452,14.6949677 20.1437419,16.2580645 22.0645161,16.2580645 C23.9852903,16.2580645 25.5483871,14.6949677 25.5483871,12.7741935 L25.5483871,6.96774194 L27.8709677,6.96774194 L27.8709677,4.64516129 L20.9032258,4.64516129 L20.9032258,6.96774194 Z" id="Path" fill="#616161"></path>
                <path d="M34.8387097,4.64516129 C32.2769032,4.64516129 30.1935484,6.72851613 30.1935484,9.29032258 L30.1935484,11.6129032 C30.1935484,14.1747097 32.2769032,16.2580645 34.8387097,16.2580645 C37.4005161,16.2580645 39.483871,14.1747097 39.483871,11.6129032 L39.483871,9.29032258 C39.483871,6.72851613 37.4005161,4.64516129 34.8387097,4.64516129 Z M37.1612903,11.6129032 C37.1612903,12.8938065 36.1196129,13.9354839 34.8387097,13.9354839 C33.5578065,13.9354839 32.516129,12.8938065 32.516129,11.6129032 L32.516129,9.29032258 C32.516129,8.00941935 33.5578065,6.96774194 34.8387097,6.96774194 C36.1196129,6.96774194 37.1612903,8.00941935 37.1612903,9.29032258 L37.1612903,11.6129032 Z" id="Shape" fill="#616161"></path>
            </g>
        </g>
    </g>
</svg>